<svg width="14" height="14" viewBox="0 0 14 14" fill="none" xmlns="http://www.w3.org/2000/svg">
<path d="M7.00016 6.27051C7.24179 6.27051 7.43766 6.46638 7.43766 6.70801V9.62467C7.43766 9.8663 7.24179 10.0622 7.00016 10.0622C6.75854 10.0622 6.56266 9.8663 6.56266 9.62467V6.70801C6.56266 6.46638 6.75854 6.27051 7.00016 6.27051Z" fill="#FF1616"/>
<path d="M7.00016 5.24967C7.32233 5.24967 7.5835 4.98851 7.5835 4.66634C7.5835 4.34418 7.32233 4.08301 7.00016 4.08301C6.678 4.08301 6.41683 4.34418 6.41683 4.66634C6.41683 4.98851 6.678 5.24967 7.00016 5.24967Z" fill="#FF1616"/>
<path fill-rule="evenodd" clip-rule="evenodd" d="M1.896 6.99967C1.896 4.18072 4.18121 1.89551 7.00016 1.89551C9.81912 1.89551 12.1043 4.18072 12.1043 6.99967C12.1043 9.81863 9.81912 12.1038 7.00016 12.1038C4.18121 12.1038 1.896 9.81863 1.896 6.99967ZM7.00016 2.77051C4.66446 2.77051 2.771 4.66397 2.771 6.99967C2.771 9.33538 4.66446 11.2288 7.00016 11.2288C9.33587 11.2288 11.2293 9.33538 11.2293 6.99967C11.2293 4.66397 9.33587 2.77051 7.00016 2.77051Z" fill="#FF1616"/>
</svg>
