<svg width="28" height="28" viewBox="0 0 28 28" fill="none" xmlns="http://www.w3.org/2000/svg">
<path d="M13.1373 19.7498C13.1373 20.2262 13.5235 20.6123 13.9998 20.6123C14.4762 20.6123 14.8623 20.2262 14.8623 19.7498V14.8623H19.7498C20.2261 14.8623 20.6123 14.4762 20.6123 13.9998C20.6123 13.5235 20.2261 13.1373 19.7498 13.1373H14.8623V8.2498C14.8623 7.77346 14.4762 7.38731 13.9998 7.38731C13.5235 7.38731 13.1373 7.77346 13.1373 8.2498V13.1373H8.2498C7.77346 13.1373 7.38731 13.5235 7.38731 13.9998C7.38731 14.4762 7.77346 14.8623 8.2498 14.8623H13.1373V19.7498Z" fill="#F6FAF9"/>
</svg>
